{
	"asset":{
		"generator":"Khronos glTF Blender I/O v4.1.62",
		"version":"2.0"
	},
	"scene":0,
	"scenes":[
		{
			"name":"Scene",
			"nodes":[
				22
			]
		}
	],
	"nodes":[
		{
			"name":"tail6_end",
			"rotation":[
				7.450579886381092e-08,
				-1.989519524603009e-13,
				2.6290081223123707e-13,
				1
			],
			"scale":[
				1,
				1.0000001192092896,
				1.0000001192092896
			],
			"translation":[
				2.1600499167107046e-12,
				6.2809295654296875,
				1.4319212482405419e-11
			]
		},
		{
			"children":[
				0
			],
			"name":"tail6",
			"rotation":[
				-1.4901161193847656e-07,
				5.158540261618327e-10,
				-6.928715379217465e-10,
				1
			],
			"translation":[
				-1.5916157281026244e-12,
				1.816845178604126,
				1.0443201858834072e-11
			]
		},
		{
			"children":[
				1
			],
			"name":"tail5",
			"rotation":[
				1.7881393432617188e-07,
				-1.3818741706472792e-09,
				1.8556960412752233e-09,
				1
			],
			"translation":[
				-1.1368683772161603e-12,
				2.3297669887542725,
				4.768464236803993e-07
			]
		},
		{
			"children":[
				2
			],
			"name":"tail4",
			"rotation":[
				2.533197687171196e-07,
				1.371390112581139e-09,
				-1.8420821534803622e-09,
				1
			],
			"scale":[
				1,
				0.9999999403953552,
				0.9999999403953552
			],
			"translation":[
				-6.821210263296962e-13,
				2.1343138217926025,
				4.768450025949278e-07
			]
		},
		{
			"children":[
				3
			],
			"name":"tail3",
			"rotation":[
				0.01383677776902914,
				-1.0283704199309796e-07,
				1.2492084522364166e-07,
				0.9999042749404907
			],
			"scale":[
				1,
				0.9999999403953552,
				1
			],
			"translation":[
				1.5916157281026244e-12,
				1.4826308488845825,
				4.773070827468473e-12
			]
		},
		{
			"children":[
				4
			],
			"name":"tail2",
			"rotation":[
				4.1723259869286267e-07,
				-8.625385405913732e-10,
				1.12541453933801e-09,
				1
			],
			"scale":[
				1,
				0.9999998211860657,
				0.9999998807907104
			],
			"translation":[
				-2.2737367544323206e-13,
				1.9062477350234985,
				9.536786365060834e-07
			]
		},
		{
			"children":[
				5
			],
			"name":"tail1",
			"rotation":[
				1.1920930376163597e-07,
				3.4226843581564026e-11,
				-4.5627505246281785e-11,
				1
			],
			"scale":[
				1,
				0.9999999403953552,
				0.9999999403953552
			],
			"translation":[
				1.1141310096718371e-11,
				2.8512191772460938,
				-4.768334918026085e-07
			]
		},
		{
			"children":[
				6
			],
			"name":"tail0",
			"rotation":[
				0.22405236959457397,
				-1.3937907397121307e-06,
				1.6691113842171035e-06,
				0.9745770692825317
			],
			"translation":[
				-1.4551915228366852e-11,
				6.280340194702148,
				1.668914705987845e-06
			]
		},
		{
			"children":[
				7
			],
			"name":"body3",
			"rotation":[
				0.004088446963578463,
				1.3773109230896807e-06,
				-1.129573547586915e-06,
				0.9999916553497314
			],
			"translation":[
				3.907985046680551e-14,
				3.267448902130127,
				1.474376176702208e-13
			]
		},
		{
			"children":[
				8
			],
			"name":"body2",
			"rotation":[
				-2.1606683731079102e-07,
				3.1601385397372894e-10,
				-2.591300507504002e-10,
				1
			],
			"translation":[
				-3.126388037344441e-13,
				3.0126516819000244,
				4.768373287333816e-07
			]
		},
		{
			"children":[
				9
			],
			"name":"body1",
			"rotation":[
				0.036779265850782394,
				2.936765497452143e-07,
				-2.410966146726423e-07,
				0.9993234276771545
			],
			"scale":[
				1,
				1.0000001192092896,
				1
			],
			"translation":[
				3.865352482534945e-12,
				5.747483730316162,
				2.9802442895743297e-06
			]
		},
		{
			"name":"fin_left1_end",
			"rotation":[
				5.122273805113764e-08,
				8.195638656616211e-08,
				-6.891787052154541e-08,
				1
			],
			"scale":[
				1,
				1,
				1.0000001192092896
			],
			"translation":[
				-1.4901161193847656e-06,
				7.854709148406982,
				-9.5367431640625e-07
			]
		},
		{
			"children":[
				11
			],
			"name":"fin_left1",
			"rotation":[
				-0.06653081625699997,
				-0.18585434556007385,
				0.20861022174358368,
				0.957869291305542
			],
			"scale":[
				0.9999999403953552,
				1,
				0.9999999403953552
			],
			"translation":[
				-4.76837158203125e-07,
				7.02326774597168,
				-1.430511474609375e-06
			]
		},
		{
			"children":[
				12
			],
			"name":"fin_left0",
			"rotation":[
				0.2964976727962494,
				0.6291342973709106,
				-0.4783670902252197,
				0.5361382365226746
			],
			"scale":[
				1,
				1,
				0.9999999403953552
			],
			"translation":[
				11.926275253295898,
				-5.4416680335998535,
				-5.458362579345703
			]
		},
		{
			"name":"head_end",
			"rotation":[
				-2.2351741790771484e-08,
				-4.3876013933186186e-13,
				-7.815970093361102e-14,
				1
			],
			"translation":[
				1.1368683772161603e-12,
				24.118276596069336,
				-4.76837158203125e-07
			]
		},
		{
			"children":[
				14
			],
			"name":"head",
			"rotation":[
				-0.9996941685676575,
				-5.798362323616857e-08,
				5.279320021145395e-07,
				0.02472998946905136
			],
			"scale":[
				1,
				0.9999999403953552,
				1.0000014305114746
			],
			"translation":[
				-8.491634844176588e-07,
				-7.983153820037842,
				-0.17398309707641602
			]
		},
		{
			"name":"fin_right1_end",
			"rotation":[
				4.6566128730773926e-09,
				-4.470348358154297e-08,
				-5.494803190231323e-08,
				1
			],
			"translation":[
				1.0132789611816406e-06,
				7.8547043800354,
				2.384185791015625e-07
			]
		},
		{
			"children":[
				16
			],
			"name":"fin_right1",
			"rotation":[
				-0.06653162091970444,
				0.18585582077503204,
				-0.20861051976680756,
				0.9578688740730286
			],
			"scale":[
				0.9999998807907104,
				0.9999999403953552,
				0.9999999403953552
			],
			"translation":[
				-2.384185791015625e-07,
				7.023266315460205,
				-1.430511474609375e-06
			]
		},
		{
			"children":[
				17
			],
			"name":"fin_right0",
			"rotation":[
				0.2964978516101837,
				-0.6291343569755554,
				0.47836658358573914,
				0.5361385345458984
			],
			"scale":[
				1,
				1.0000001192092896,
				1
			],
			"translation":[
				-11.926275253295898,
				-5.441656112670898,
				-5.458348751068115
			]
		},
		{
			"children":[
				10,
				13,
				15,
				18
			],
			"name":"body0",
			"rotation":[
				-0.7960251569747925,
				-8.92613399508654e-15,
				3.8519638678735646e-07,
				0.6052635312080383
			],
			"translation":[
				0,
				17.251537322998047,
				-9.588774219082552e-09
			]
		},
		{
			"children":[
				19
			],
			"name":"root",
			"rotation":[
				-0.7071067690849304,
				0,
				0,
				0.7071067690849304
			],
			"translation":[
				-1.709000025584828e-05,
				1.4358150959014893,
				22.115468978881836
			]
		},
		{
			"mesh":0,
			"name":"base",
			"skin":0
		},
		{
			"children":[
				21,
				20
			],
			"name":"rig",
			"rotation":[
				0.7071068286895752,
				0,
				0,
				0.7071068286895752
			]
		}
	],
	"materials":[
		{
			"doubleSided":true,
			"name":"Default_OBJ",
			"pbrMetallicRoughness":{
				"baseColorFactor":[
					0.800000011920929,
					0.800000011920929,
					0.800000011920929,
					1
				],
				"metallicFactor":0,
				"roughnessFactor":0.5
			}
		}
	],
	"meshes":[
		{
			"name":"base",
			"primitives":[
				{
					"attributes":{
						"POSITION":0,
						"NORMAL":1,
						"TEXCOORD_0":2,
						"JOINTS_0":3,
						"WEIGHTS_0":4
					},
					"indices":5,
					"material":0
				}
			]
		}
	],
	"skins":[
		{
			"inverseBindMatrices":6,
			"joints":[
				20,
				19,
				10,
				9,
				8,
				7,
				6,
				5,
				4,
				3,
				2,
				1,
				0,
				13,
				12,
				11,
				15,
				14,
				18,
				17,
				16
			],
			"name":"rig"
		}
	],
	"accessors":[
		{
			"bufferView":0,
			"componentType":5126,
			"count":19253,
			"max":[
				24.951068878173828,
				24.908531188964844,
				39.78874969482422
			],
			"min":[
				-24.951068878173828,
				-22.115467071533203,
				-40.67455291748047
			],
			"type":"VEC3"
		},
		{
			"bufferView":1,
			"componentType":5126,
			"count":19253,
			"type":"VEC3"
		},
		{
			"bufferView":2,
			"componentType":5126,
			"count":19253,
			"type":"VEC2"
		},
		{
			"bufferView":3,
			"componentType":5121,
			"count":19253,
			"type":"VEC4"
		},
		{
			"bufferView":4,
			"componentType":5126,
			"count":19253,
			"type":"VEC4"
		},
		{
			"bufferView":5,
			"componentType":5123,
			"count":100068,
			"type":"SCALAR"
		},
		{
			"bufferView":6,
			"componentType":5126,
			"count":21,
			"type":"MAT4"
		}
	],
	"bufferViews":[
		{
			"buffer":0,
			"byteLength":231036,
			"byteOffset":0,
			"target":34962
		},
		{
			"buffer":0,
			"byteLength":231036,
			"byteOffset":231036,
			"target":34962
		},
		{
			"buffer":0,
			"byteLength":154024,
			"byteOffset":462072,
			"target":34962
		},
		{
			"buffer":0,
			"byteLength":77012,
			"byteOffset":616096,
			"target":34962
		},
		{
			"buffer":0,
			"byteLength":308048,
			"byteOffset":693108,
			"target":34962
		},
		{
			"buffer":0,
			"byteLength":200136,
			"byteOffset":1001156,
			"target":34963
		},
		{
			"buffer":0,
			"byteLength":1344,
			"byteOffset":1201292
		}
	],
	"buffers":[
		{
			"byteLength":1202636,
			"uri":"base.bin"
		}
	]
}
